<svg width="257" height="454" viewBox="0 0 257 454" fill="none" xmlns="http://www.w3.org/2000/svg">
<rect x="26.582" y="15.9658" width="272.168" height="333.158" rx="40" transform="rotate(34.0854 26.582 15.9658)" fill="#F3F3E9"/>
<path d="M6.45866 28.8461C15.7441 15.124 34.3955 11.5274 48.1176 20.8128L218.675 136.226C236.972 148.606 241.767 173.475 229.386 191.771L76.9502 417.042C64.5696 435.338 39.7011 440.134 21.4049 427.753L-140.871 317.945C-159.167 305.564 -163.963 280.696 -151.582 262.399L6.45866 28.8461Z" fill="#998A8A"/>
<path d="M7.72534 15.5836C10.9923 10.7557 17.5544 9.49029 22.3823 12.7572C24.7962 14.3907 25.4289 17.6718 23.7955 20.0857L-161.451 293.844C-163.901 297.465 -168.823 298.414 -172.444 295.964C-176.065 293.514 -177.014 288.592 -174.564 284.971L7.72534 15.5836Z" fill="#998A8A"/>
<line x1="23.6784" y1="18.4698" x2="-162.683" y2="295.406" stroke="black" stroke-opacity="0.29" stroke-width="5" stroke-linecap="round"/>
<line x1="59.169" y1="82.1301" x2="178.456" y2="162.849" stroke="black" stroke-opacity="0.14" stroke-width="16"/>
<line x1="48.1416" y1="98.4524" x2="113.395" y2="142.608" stroke="black" stroke-opacity="0.14" stroke-width="16"/>
<line x1="36.1436" y1="116.186" x2="101.397" y2="160.342" stroke="black" stroke-opacity="0.14" stroke-width="16"/>
</svg>
