<svg width="257" height="528" viewBox="0 0 257 528" fill="none" xmlns="http://www.w3.org/2000/svg">
<path d="M507.453 52.175C511.42 56.0171 511.522 62.3479 507.68 66.3154L68.0181 520.321C64.1761 524.289 57.8452 524.39 53.8778 520.548L7.18418 475.33C3.21676 471.488 3.11517 465.157 6.95722 461.19L446.619 7.1836C450.461 3.21619 456.792 3.11458 460.759 6.95665L507.453 52.175Z" fill="#F7EFD5"/>
<rect x="289.496" y="291.617" width="6.56009" height="45" rx="3.28004" transform="rotate(134.08 289.496 291.617)" fill="#222222" fill-opacity="0.51"/>
<rect x="231.943" y="351.047" width="6.56009" height="45" rx="3.28004" transform="rotate(134.08 231.943 351.047)" fill="#222222" fill-opacity="0.51"/>
<rect x="174.393" y="410.477" width="6.56009" height="45" rx="3.28004" transform="rotate(134.08 174.393 410.477)" fill="#222222" fill-opacity="0.51"/>
<rect x="116.84" y="469.907" width="6.56009" height="45" rx="3.28004" transform="rotate(134.08 116.84 469.907)" fill="#222222" fill-opacity="0.51"/>
<rect x="272.51" y="309.157" width="3.28004" height="18.6667" rx="1.64002" transform="rotate(134.08 272.51 309.157)" fill="#222222" fill-opacity="0.51"/>
<rect x="243.1" y="339.527" width="3.64449" height="18.6667" rx="1.82225" transform="rotate(134.08 243.1 339.527)" fill="#222222" fill-opacity="0.51"/>
<rect x="213.689" y="369.897" width="3.64449" height="18.6667" rx="1.82225" transform="rotate(134.08 213.689 369.897)" fill="#222222" fill-opacity="0.51"/>
<rect x="184.279" y="400.266" width="3.64449" height="18.6667" rx="1.82225" transform="rotate(134.08 184.279 400.266)" fill="#222222" fill-opacity="0.51"/>
<rect x="154.615" y="430.898" width="3.28004" height="18.6667" rx="1.64002" transform="rotate(134.08 154.615 430.898)" fill="#222222" fill-opacity="0.51"/>
<rect x="125.205" y="461.268" width="3.28004" height="18.6667" rx="1.64002" transform="rotate(134.08 125.205 461.268)" fill="#222222" fill-opacity="0.51"/>
<rect x="100.613" y="486.663" width="3.28004" height="18.6667" rx="1.64002" transform="rotate(134.08 100.613 486.663)" fill="#222222" fill-opacity="0.51"/>
<rect x="71.2031" y="517.033" width="3.28004" height="18.6667" rx="1.64002" transform="rotate(134.08 71.2031 517.033)" fill="#222222" fill-opacity="0.51"/>
</svg>
